<svg id="svg" version="1.1" xmlns="http://www.w3.org/2000/svg" xmlns:xlink="http://www.w3.org/1999/xlink" width="400" height="400" viewBox="0, 0, 400,400"><g id="svgg"><path id="path0" d="M199.395 33.386 C 198.842 33.579,198.591 34.062,198.837 34.459 C 199.082 34.857,198.752 34.978,198.103 34.729 C 197.455 34.480,196.176 35.024,195.262 35.938 C 194.348 36.852,193.600 37.265,193.600 36.856 C 193.600 36.404,192.577 36.419,191.000 36.892 C 186.143 38.350,178.978 38.256,177.320 36.711 C 175.642 35.147,161.520 35.206,159.618 36.785 C 159.087 37.226,158.416 37.349,158.126 37.060 C 157.837 36.770,157.600 36.891,157.600 37.328 C 157.600 37.765,156.520 37.964,155.200 37.771 C 153.811 37.567,152.800 37.779,152.800 38.273 C 152.800 38.743,151.459 39.379,149.820 39.687 C 148.181 39.994,146.417 40.640,145.901 41.123 C 145.384 41.605,143.638 43.080,142.020 44.400 C 140.403 45.720,138.371 47.515,137.505 48.388 C 136.480 49.422,135.112 49.890,133.582 49.729 C 131.882 49.551,130.704 50.052,129.324 51.541 C 128.275 52.674,126.834 53.600,126.122 53.600 C 125.410 53.600,123.124 55.233,121.042 57.228 C 118.959 59.223,116.433 61.062,115.428 61.315 C 114.422 61.567,113.600 62.116,113.600 62.534 C 113.600 62.952,113.247 63.077,112.817 62.810 C 111.796 62.179,108.860 63.753,106.638 66.122 C 105.669 67.155,104.499 68.000,104.038 68.000 C 103.577 68.000,103.200 68.345,103.200 68.767 C 103.200 69.189,101.419 70.167,99.243 70.940 C 97.065 71.713,94.879 73.106,94.380 74.037 C 93.882 74.968,92.333 76.387,90.937 77.191 C 87.068 79.420,78.347 87.241,77.392 89.338 C 76.925 90.362,76.151 91.202,75.672 91.205 C 75.192 91.208,73.962 92.441,72.938 93.945 C 71.915 95.448,69.305 98.527,67.138 100.786 C 64.856 103.167,63.200 105.635,63.200 106.656 C 63.200 107.639,62.140 109.293,60.800 110.400 C 59.480 111.490,58.400 112.854,58.400 113.429 C 58.400 114.005,57.457 115.351,56.304 116.419 C 54.836 117.779,54.085 119.447,53.800 121.981 C 53.575 123.971,53.156 125.600,52.868 125.600 C 51.044 125.600,45.738 140.223,45.395 146.196 C 45.288 148.064,44.972 149.594,44.693 149.596 C 44.415 149.598,43.998 150.320,43.768 151.200 C 43.538 152.080,43.617 152.800,43.943 152.800 C 44.949 152.800,44.447 160.497,43.355 161.813 C 42.280 163.108,42.318 170.398,43.400 170.399 C 44.293 170.400,44.126 172.624,43.210 172.933 C 42.775 173.080,42.260 175.720,42.065 178.800 C 41.870 181.880,41.385 185.660,40.987 187.200 C 40.589 188.740,40.363 190.900,40.486 192.000 C 41.334 199.613,41.545 208.239,40.911 209.373 C 40.437 210.221,40.454 211.469,40.958 212.758 C 41.397 213.881,41.856 216.141,41.978 217.780 C 42.099 219.419,42.747 221.939,43.416 223.380 C 48.618 234.576,49.600 236.846,49.600 237.678 C 49.600 238.198,50.190 239.055,50.912 239.583 C 51.892 240.300,52.022 240.903,51.425 241.969 C 50.340 243.909,51.708 248.150,55.095 253.344 C 56.577 255.617,57.658 257.595,57.498 257.739 C 57.338 257.882,58.015 259.136,59.003 260.523 C 59.991 261.911,60.806 263.531,60.813 264.123 C 60.820 264.716,62.440 266.759,64.413 268.664 C 66.386 270.569,68.000 272.429,68.000 272.797 C 68.000 273.165,68.277 273.587,68.615 273.733 C 68.953 273.880,70.384 276.366,71.795 279.258 C 73.206 282.150,75.136 285.210,76.084 286.058 C 77.032 286.906,78.680 288.974,79.747 290.652 C 81.528 293.456,86.141 296.951,88.521 297.300 C 90.059 297.526,92.363 299.350,94.850 302.310 C 96.102 303.800,99.209 306.535,101.754 308.386 C 104.298 310.238,106.145 311.988,105.857 312.276 C 104.342 313.792,112.969 319.817,117.435 320.363 C 118.445 320.487,120.065 321.314,121.035 322.202 C 122.006 323.090,123.610 324.062,124.600 324.362 C 125.590 324.662,126.400 325.205,126.400 325.569 C 126.400 325.932,128.830 327.201,131.800 328.388 C 134.770 329.575,137.634 330.904,138.163 331.341 C 142.276 334.732,150.191 337.065,156.936 336.875 C 159.431 336.805,161.688 337.095,161.950 337.520 C 162.418 338.277,170.435 340.260,172.800 340.204 C 173.460 340.188,175.478 340.654,177.285 341.239 C 179.092 341.824,181.972 342.291,183.685 342.276 C 185.398 342.262,187.834 342.651,189.097 343.142 C 190.656 343.747,191.709 343.774,192.371 343.224 C 192.908 342.778,193.535 342.602,193.764 342.831 C 194.232 343.298,198.357 344.037,202.000 344.305 C 203.320 344.403,204.940 344.709,205.600 344.986 C 211.331 347.394,225.939 347.143,230.973 344.550 C 233.269 343.367,235.699 342.400,236.373 342.400 C 237.048 342.400,237.600 342.019,237.600 341.553 C 237.600 341.087,237.935 340.913,238.345 341.166 C 238.754 341.419,239.319 341.254,239.600 340.800 C 239.881 340.346,240.462 340.191,240.890 340.456 C 241.319 340.721,242.645 340.290,243.835 339.498 C 245.026 338.706,247.980 337.030,250.400 335.774 C 257.481 332.096,258.420 331.487,257.862 330.929 C 257.571 330.638,258.203 330.354,259.267 330.298 C 262.948 330.104,264.666 329.822,266.130 329.175 C 266.938 328.817,268.401 328.428,269.381 328.311 C 270.360 328.194,271.620 327.705,272.181 327.224 C 272.741 326.743,275.541 324.962,278.401 323.268 C 281.262 321.573,285.252 318.615,287.267 316.693 C 289.283 314.772,292.449 312.202,294.302 310.982 C 296.259 309.694,297.443 308.392,297.125 307.878 C 296.795 307.344,297.019 307.153,297.689 307.396 C 298.915 307.842,304.030 305.092,305.040 303.444 C 305.392 302.870,306.112 302.398,306.640 302.395 C 307.168 302.392,308.481 301.096,309.558 299.515 C 310.634 297.934,312.701 295.737,314.150 294.632 C 315.599 293.526,316.602 292.327,316.379 291.966 C 316.156 291.605,316.642 290.835,317.460 290.255 C 318.277 289.675,319.417 288.300,319.993 287.200 C 320.569 286.100,321.294 285.020,321.605 284.800 C 326.458 281.368,333.600 274.450,333.600 273.181 C 333.600 272.721,334.678 271.708,335.995 270.930 C 337.313 270.152,338.612 268.634,338.882 267.557 C 339.152 266.481,339.703 265.600,340.107 265.600 C 340.510 265.600,341.182 264.700,341.600 263.600 C 342.018 262.500,342.771 261.600,343.274 261.600 C 343.783 261.600,344.007 260.915,343.782 260.052 C 343.559 259.200,343.787 258.345,344.288 258.152 C 345.318 257.756,348.800 251.549,348.800 250.110 C 348.800 249.594,349.648 247.918,350.685 246.386 C 351.737 244.832,352.443 242.783,352.283 241.751 C 352.121 240.711,352.331 240.110,352.764 240.377 C 353.466 240.812,356.145 236.707,355.948 235.498 C 355.901 235.212,356.181 234.759,356.570 234.489 C 359.858 232.213,362.377 223.747,360.912 219.895 C 360.392 218.527,360.505 217.124,361.283 215.274 C 361.897 213.812,362.400 211.403,362.400 209.920 C 362.400 208.436,362.820 205.653,363.333 203.735 C 363.880 201.688,363.988 199.617,363.594 198.723 C 363.009 197.398,362.356 191.630,362.381 188.000 C 362.422 181.782,362.328 179.017,361.956 175.496 C 361.621 172.330,361.823 171.091,362.842 170.073 C 364.277 168.637,363.954 165.682,362.161 163.856 C 361.590 163.275,361.088 162.080,361.044 161.200 C 360.721 154.703,359.180 149.193,357.531 148.644 C 356.913 148.438,356.448 146.009,356.256 141.984 C 355.971 136.023,355.220 133.780,352.453 130.628 C 350.082 127.926,349.645 127.139,348.825 124.094 C 348.337 122.282,347.568 120.800,347.115 120.800 C 346.663 120.800,346.487 120.170,346.725 119.400 C 347.174 117.948,345.150 115.010,339.855 109.426 C 338.235 107.718,336.677 105.260,336.392 103.965 C 336.108 102.669,335.426 101.337,334.877 101.005 C 334.034 100.494,332.730 98.222,332.463 96.800 C 332.256 95.692,329.801 92.948,328.310 92.158 C 327.380 91.665,326.144 90.077,325.562 88.631 C 324.980 87.184,323.542 85.100,322.366 84.000 C 317.037 79.017,314.479 76.988,314.057 77.410 C 313.805 77.661,313.600 77.267,313.600 76.533 C 313.600 75.800,313.240 75.200,312.800 75.200 C 312.360 75.200,312.000 74.540,312.000 73.732 C 312.000 72.925,310.920 71.302,309.600 70.126 C 308.280 68.950,307.200 68.233,307.200 68.533 C 307.200 68.833,306.300 68.233,305.200 67.200 C 304.100 66.167,303.200 65.602,303.200 65.945 C 303.200 66.288,302.174 65.541,300.919 64.285 C 297.492 60.851,291.622 56.800,290.074 56.800 C 289.322 56.800,288.898 56.488,289.134 56.107 C 289.886 54.890,286.443 52.512,283.604 52.288 C 282.095 52.170,279.857 51.556,278.630 50.924 C 277.404 50.293,275.117 49.605,273.549 49.396 C 271.981 49.187,269.821 48.547,268.749 47.973 C 267.677 47.399,266.714 46.981,266.608 47.043 C 265.905 47.459,255.433 42.577,252.896 40.652 C 251.781 39.805,250.172 39.355,249.013 39.565 C 247.924 39.763,245.519 39.410,243.668 38.782 C 241.817 38.153,238.524 37.720,236.351 37.820 C 234.030 37.926,231.960 37.584,231.333 36.990 C 230.133 35.854,221.750 35.910,221.039 37.060 C 220.798 37.451,220.359 37.381,220.065 36.905 C 219.771 36.429,218.646 35.941,217.565 35.820 C 216.484 35.699,215.384 35.306,215.120 34.947 C 214.262 33.779,211.651 33.785,209.333 34.961 C 207.657 35.811,206.477 35.904,204.801 35.320 C 203.555 34.886,202.268 34.771,201.940 35.065 C 201.612 35.359,201.579 35.188,201.867 34.684 C 202.456 33.654,200.928 32.852,199.395 33.386 M174.948 49.897 C 176.426 52.768,178.966 55.200,180.486 55.200 C 181.847 55.200,185.583 51.456,184.915 50.760 C 184.632 50.465,185.887 50.427,187.704 50.675 C 189.521 50.923,191.258 50.875,191.565 50.568 C 191.872 50.261,196.298 50.000,201.401 49.987 C 208.003 49.970,210.773 49.681,211.006 48.982 C 211.456 47.631,216.391 47.747,219.149 49.173 C 220.397 49.819,222.809 50.233,224.509 50.093 C 227.396 49.857,236.209 52.151,238.000 53.606 C 238.440 53.963,240.478 54.439,242.530 54.664 C 244.581 54.888,247.101 55.614,248.130 56.276 C 249.158 56.939,251.440 57.731,253.200 58.037 C 254.960 58.342,258.020 59.376,260.000 60.334 C 261.980 61.292,265.196 62.182,267.148 62.310 C 269.302 62.452,271.658 63.263,273.148 64.375 C 274.496 65.383,277.040 66.681,278.800 67.261 C 280.560 67.840,283.589 69.503,285.531 70.957 C 287.473 72.411,289.453 73.612,289.931 73.627 C 291.361 73.671,302.400 86.872,302.400 88.538 C 302.400 88.928,303.170 89.776,304.111 90.423 C 305.052 91.071,306.803 92.400,308.000 93.378 C 309.198 94.355,310.372 94.961,310.609 94.724 C 310.846 94.487,311.451 95.537,311.953 97.057 C 312.455 98.578,314.581 101.403,316.679 103.335 C 319.324 105.772,321.526 108.984,323.869 113.824 C 325.726 117.661,327.555 120.800,327.934 120.800 C 328.312 120.800,328.855 122.045,329.141 123.566 C 329.449 125.210,330.937 127.661,332.811 129.612 C 334.562 131.434,336.341 134.294,336.812 136.046 C 337.309 137.892,338.147 139.200,338.831 139.200 C 339.619 139.200,340.000 140.055,340.000 141.822 C 340.000 143.264,340.464 145.154,341.031 146.022 C 341.599 146.890,342.023 148.860,341.975 150.400 C 341.926 151.940,342.541 154.280,343.340 155.600 C 344.140 156.920,344.795 159.347,344.797 160.993 C 344.799 163.118,345.264 164.276,346.400 164.986 C 347.280 165.535,348.000 166.280,348.000 166.640 C 348.000 167.000,347.584 167.038,347.076 166.724 C 346.444 166.333,346.374 166.507,346.854 167.276 C 348.289 169.576,348.722 173.694,347.677 175.087 C 347.082 175.878,347.274 176.475,348.383 177.287 C 349.221 177.899,349.669 178.400,349.379 178.400 C 349.089 178.400,349.147 179.199,349.508 180.175 C 349.950 181.369,349.698 182.994,348.739 185.134 C 347.729 187.391,347.538 188.738,348.085 189.759 C 348.509 190.552,348.574 191.206,348.228 191.212 C 347.883 191.219,348.140 191.573,348.800 192.000 C 349.826 192.663,349.796 192.777,348.600 192.788 C 347.830 192.794,347.257 193.070,347.327 193.400 C 347.397 193.730,347.169 194.654,346.821 195.454 C 346.443 196.321,346.615 197.706,347.246 198.886 C 348.703 201.608,348.475 207.962,346.804 211.192 C 345.821 213.093,345.556 214.864,345.889 217.298 C 346.276 220.121,346.034 221.120,344.518 222.963 C 343.505 224.193,341.860 227.000,340.861 229.200 C 337.790 235.967,336.453 238.451,335.085 239.929 C 333.925 241.184,331.004 246.124,330.786 247.200 C 330.742 247.420,330.431 249.098,330.094 250.929 C 329.758 252.760,328.790 254.885,327.942 255.653 C 327.094 256.420,326.400 257.712,326.400 258.524 C 326.400 259.336,326.012 260.000,325.538 260.000 C 324.344 260.000,320.646 263.923,319.200 266.724 C 318.540 268.003,316.771 269.983,315.269 271.124 C 310.929 274.424,307.314 278.567,307.761 279.730 C 307.986 280.318,307.666 280.800,307.048 280.800 C 306.431 280.800,305.222 281.344,304.363 282.009 C 303.503 282.674,301.001 284.384,298.802 285.809 C 294.332 288.706,286.400 296.139,286.400 297.431 C 286.400 297.892,284.600 299.083,282.400 300.077 C 280.200 301.072,278.400 302.175,278.400 302.529 C 278.400 302.883,276.600 304.085,274.400 305.200 C 272.200 306.315,270.400 307.581,270.400 308.013 C 270.400 308.446,269.841 308.800,269.158 308.800 C 268.474 308.800,266.591 309.700,264.972 310.800 C 263.353 311.900,261.572 312.800,261.014 312.800 C 260.456 312.800,260.000 313.114,260.000 313.498 C 260.000 313.882,258.621 314.416,256.935 314.686 C 255.249 314.955,253.221 315.893,252.428 316.769 C 251.635 317.645,250.738 318.209,250.436 318.022 C 250.133 317.835,248.947 318.169,247.799 318.764 C 246.652 319.359,245.548 319.682,245.347 319.480 C 245.145 319.279,243.770 319.852,242.290 320.754 C 240.811 321.656,239.150 322.395,238.600 322.397 C 238.050 322.399,236.880 323.120,236.000 324.000 C 235.120 324.880,233.544 325.600,232.498 325.600 C 231.452 325.600,230.119 326.174,229.537 326.876 C 228.762 327.809,227.685 328.026,225.532 327.682 C 223.425 327.345,222.300 327.557,221.578 328.427 C 220.346 329.911,203.729 329.435,201.834 327.862 C 201.209 327.344,198.834 326.953,196.556 326.995 C 194.278 327.037,192.195 326.716,191.927 326.282 C 191.659 325.849,190.756 325.365,189.920 325.208 C 189.084 325.051,188.400 324.883,188.400 324.836 C 188.400 324.762,181.862 324.235,174.400 323.707 C 173.300 323.629,171.881 323.933,171.246 324.383 C 170.391 324.989,170.248 324.941,170.694 324.200 C 171.119 323.493,170.623 323.200,169.000 323.200 C 167.738 323.200,166.007 322.671,165.153 322.025 C 164.299 321.379,162.460 320.839,161.067 320.825 C 159.673 320.811,158.389 320.368,158.213 319.840 C 157.797 318.592,152.071 318.591,151.300 319.839 C 150.873 320.530,149.951 320.240,147.998 318.799 C 146.508 317.699,144.711 316.800,144.005 316.800 C 143.298 316.800,142.288 316.368,141.760 315.840 C 141.232 315.312,140.800 315.128,140.800 315.432 C 140.800 315.736,140.150 315.428,139.357 314.748 C 136.675 312.453,131.200 309.503,131.200 310.355 C 131.200 311.832,130.008 311.266,129.190 309.400 C 128.720 308.330,127.697 307.600,126.665 307.600 C 125.616 307.600,123.123 305.780,120.358 302.996 C 117.843 300.464,114.977 298.246,113.989 298.067 C 110.629 297.457,107.584 295.361,103.989 291.183 C 102.015 288.889,99.666 286.732,98.769 286.390 C 97.872 286.048,96.252 284.036,95.169 281.919 C 92.929 277.540,88.540 272.800,86.726 272.800 C 86.055 272.800,85.698 272.488,85.934 272.107 C 86.170 271.726,85.651 270.770,84.781 269.983 C 83.912 269.196,83.201 268.158,83.202 267.676 C 83.207 265.752,79.525 260.000,78.288 260.000 C 77.522 260.000,76.744 259.084,76.422 257.804 C 76.119 256.597,75.467 255.122,74.973 254.526 C 74.479 253.931,73.961 252.669,73.822 251.722 C 73.683 250.775,72.699 249.357,71.635 248.570 C 70.331 247.606,69.383 245.718,68.723 242.770 C 68.185 240.367,67.443 238.400,67.073 238.400 C 66.703 238.400,66.400 237.860,66.400 237.200 C 66.400 236.540,65.860 236.000,65.200 236.000 C 64.540 236.000,64.000 235.478,64.000 234.840 C 64.000 234.202,63.370 233.322,62.600 232.884 C 61.382 232.192,61.340 231.861,62.274 230.337 C 63.028 229.107,63.088 228.425,62.476 228.047 C 61.996 227.750,61.430 225.383,61.217 222.786 C 60.885 218.740,60.491 217.799,58.471 216.218 C 56.185 214.429,55.726 211.561,56.834 205.981 C 56.920 205.551,56.917 205.020,56.828 204.800 C 56.739 204.580,56.562 203.680,56.434 202.800 C 56.306 201.920,55.988 200.143,55.727 198.851 C 55.456 197.514,55.659 196.010,56.198 195.362 C 57.116 194.256,57.675 185.790,57.714 172.400 C 57.746 161.495,57.674 160.300,56.865 158.172 C 56.345 156.803,56.351 156.016,56.884 155.839 C 57.326 155.691,57.773 154.984,57.879 154.266 C 57.984 153.549,58.533 152.404,59.098 151.722 C 59.664 151.041,60.391 148.575,60.714 146.242 C 61.037 143.909,61.685 141.280,62.155 140.400 C 62.624 139.520,62.846 137.720,62.648 136.400 C 62.403 134.767,62.774 133.482,63.808 132.379 C 64.644 131.488,65.568 129.560,65.861 128.096 C 66.209 126.353,67.945 123.881,70.882 120.944 C 75.161 116.665,76.846 113.989,77.090 111.085 C 77.150 110.361,79.270 107.813,81.800 105.421 C 84.552 102.820,86.400 100.400,86.400 99.398 C 86.400 98.155,87.587 97.136,91.000 95.451 C 93.530 94.202,95.521 92.768,95.425 92.265 C 95.329 91.763,96.494 90.403,98.014 89.243 C 99.535 88.084,100.693 86.717,100.589 86.205 C 100.485 85.694,102.289 84.343,104.597 83.203 C 106.905 82.063,110.145 79.870,111.797 78.329 C 113.578 76.667,115.777 75.437,117.200 75.308 C 120.298 75.025,126.932 71.655,130.000 68.806 C 131.320 67.580,133.211 66.332,134.203 66.033 C 135.195 65.735,137.895 63.651,140.203 61.403 C 143.897 57.804,144.782 57.325,147.600 57.397 C 151.240 57.490,155.737 56.218,157.800 54.510 C 158.570 53.873,159.200 53.651,159.200 54.015 C 159.200 54.380,160.010 53.923,161.000 52.998 C 161.990 52.074,164.420 50.766,166.400 50.092 C 168.380 49.419,170.335 48.348,170.745 47.714 C 171.788 46.100,173.433 46.955,174.948 49.897 M194.152 106.155 C 193.188 106.681,189.958 107.359,186.973 107.661 C 183.815 107.982,180.805 108.786,179.773 109.585 C 178.798 110.341,176.424 111.205,174.499 111.505 C 172.573 111.805,170.243 112.580,169.321 113.226 C 168.398 113.872,166.962 114.400,166.129 114.400 C 165.296 114.400,162.898 115.660,160.800 117.200 C 158.702 118.740,156.579 120.000,156.082 120.000 C 154.654 120.000,151.949 121.713,147.200 125.624 C 144.780 127.617,141.900 129.833,140.800 130.548 C 138.746 131.884,129.078 141.383,125.717 145.367 C 123.072 148.502,117.633 159.724,117.101 163.144 C 116.857 164.715,116.006 167.080,115.211 168.400 C 113.479 171.274,113.311 175.200,114.920 175.200 C 115.536 175.200,116.251 176.255,116.509 177.544 C 116.788 178.938,117.508 179.919,118.289 179.966 C 124.141 180.319,125.058 180.105,127.095 177.914 C 129.467 175.362,131.200 172.339,131.200 170.754 C 131.200 170.170,131.933 168.449,132.829 166.931 C 133.724 165.413,134.369 163.863,134.261 163.486 C 133.160 159.644,151.967 140.246,162.199 134.668 C 165.830 132.690,168.800 131.347,168.800 131.686 C 168.800 132.025,169.534 131.514,170.431 130.551 C 171.905 128.969,173.548 128.382,175.500 128.739 C 175.885 128.809,176.785 128.340,177.500 127.696 C 178.752 126.568,180.541 125.980,184.800 125.295 C 189.036 124.615,194.025 122.995,194.588 122.117 C 194.935 121.575,195.181 121.537,195.188 122.026 C 195.195 122.526,198.125 122.897,202.600 122.965 C 212.324 123.112,216.869 123.618,217.492 124.623 C 217.771 125.074,219.080 125.624,220.400 125.846 C 229.864 127.438,237.087 130.350,240.000 133.747 C 241.100 135.030,242.758 136.512,243.685 137.040 C 247.106 138.989,252.394 143.376,252.193 144.099 C 252.078 144.509,252.528 145.053,253.193 145.308 C 253.857 145.563,254.400 146.273,254.400 146.886 C 254.400 147.499,254.736 148.000,255.146 148.000 C 255.556 148.000,256.102 148.662,256.359 149.472 C 256.616 150.281,257.715 151.419,258.800 152.000 C 259.885 152.581,260.991 153.742,261.257 154.581 C 261.523 155.419,262.734 157.251,263.948 158.653 C 266.471 161.566,269.231 168.256,268.438 169.539 C 268.145 170.012,268.229 170.400,268.624 170.400 C 269.020 170.400,269.753 171.300,270.254 172.400 C 270.756 173.500,271.803 174.412,272.583 174.427 C 273.362 174.442,275.440 175.137,277.200 175.971 C 279.971 177.284,280.458 177.326,280.831 176.284 C 281.068 175.623,281.533 175.128,281.863 175.184 C 282.193 175.241,283.383 174.617,284.507 173.799 C 286.549 172.311,286.643 171.886,286.400 165.200 C 286.279 161.856,282.666 153.461,280.189 150.766 C 279.397 149.905,277.963 147.917,277.002 146.350 C 276.041 144.782,274.382 143.033,273.316 142.462 C 272.249 141.891,271.002 140.601,270.544 139.596 C 269.834 138.037,262.883 129.998,260.400 127.864 C 258.195 125.968,252.029 121.600,251.559 121.600 C 251.264 121.600,249.352 120.220,247.311 118.534 C 245.270 116.848,243.060 115.225,242.400 114.928 C 241.740 114.630,239.989 113.654,238.509 112.758 C 237.029 111.863,234.149 110.962,232.109 110.756 C 227.347 110.274,225.539 109.709,223.762 108.147 C 222.016 106.612,221.315 106.466,213.200 105.942 C 200.905 105.148,195.897 105.204,194.152 106.155 M159.600 217.559 C 158.720 217.912,157.767 218.067,157.482 217.904 C 156.040 217.078,148.923 224.894,149.288 226.904 C 149.493 228.036,149.270 229.434,148.792 230.010 C 148.218 230.701,148.196 231.227,148.726 231.554 C 149.168 231.828,149.327 232.580,149.079 233.226 C 148.832 233.872,149.027 234.400,149.514 234.400 C 150.001 234.400,150.400 234.940,150.400 235.600 C 150.400 236.260,150.760 236.800,151.200 236.800 C 151.640 236.800,152.000 237.160,152.000 237.600 C 152.000 238.696,154.959 241.574,155.515 241.019 C 155.761 240.773,156.189 241.163,156.467 241.885 C 156.744 242.608,157.314 243.200,157.733 243.200 C 158.152 243.200,158.266 242.750,157.988 242.200 C 157.709 241.650,157.958 241.761,158.541 242.447 C 159.693 243.803,164.397 243.978,166.494 242.742 C 170.537 240.361,176.068 230.565,173.800 229.803 C 173.250 229.618,172.800 229.050,172.800 228.542 C 172.800 223.713,169.053 219.876,161.600 217.069 C 161.380 216.987,160.480 217.207,159.600 217.559 M247.600 220.610 C 244.984 221.235,243.227 222.815,241.497 226.100 C 238.604 231.592,238.379 233.257,240.062 236.740 C 240.908 238.490,241.600 240.300,241.600 240.761 C 241.600 241.223,241.892 241.600,242.249 241.600 C 242.606 241.600,243.754 242.397,244.800 243.372 C 247.788 246.155,255.641 246.405,258.644 243.811 C 269.772 234.201,261.700 217.242,247.600 220.610 " stroke="none" fill="#000000" fill-rule="evenodd"></path></g></svg>